<svg aria-hidden="true" style="position: absolute; width: 0; height: 0; overflow: hidden;" version="1.1" xmlns="http://www.w3.org/2000/svg" xmlns:xlink="http://www.w3.org/1999/xlink">
<defs>
<symbol id="icon-arrow1" viewBox="0 0 20 32">
<path d="M10.998 0.793c-0.493-0.493-1.293-0.493-1.786 0l-8.039 8.039c-0.493 0.493-0.493 1.293 0 1.786s1.293 0.493 1.786 0l7.146-7.145 7.146 7.145c0.493 0.493 1.293 0.493 1.786 0s0.493-1.293 0-1.786l-8.039-8.039zM11.368 31.16v-29.474h-2.526v29.474h2.526z"></path>
</symbol>
<symbol id="icon-arrow2" viewBox="0 0 37 32">
<path d="M35.016 2.074c0.743 0.066 1.277 0.705 1.194 1.427l-1.359 11.766c-0.083 0.722-0.753 1.254-1.496 1.188s-1.278-0.705-1.194-1.427l1.208-10.459-10.761-0.958c-0.743-0.066-1.277-0.705-1.194-1.427s0.753-1.254 1.496-1.188l12.106 1.078zM0.688 28.832l33.333-26.459 1.689 2.018-33.333 26.459-1.689-2.018z"></path>
</symbol>
<symbol id="icon-arrow3" viewBox="0 0 31 32">
<path d="M28.733 2.459c-0.056-1.059-0.959-1.872-2.018-1.817l-17.256 0.904c-1.059 0.056-1.872 0.959-1.817 2.018s0.959 1.872 2.018 1.817l15.339-0.804 0.804 15.339c0.056 1.059 0.959 1.872 2.018 1.817s1.872-0.959 1.817-2.018l-0.904-17.256zM3.987 30.783l24.255-26.938-2.854-2.569-24.255 26.938 2.854 2.569z"></path>
</symbol>
<symbol id="icon-arrow4" viewBox="0 0 30 32">
<path d="M28.249 1.904c-0.029-0.552-0.499-0.975-1.051-0.946l-8.988 0.471c-0.552 0.029-0.975 0.499-0.946 1.051s0.499 0.975 1.051 0.946l7.989-0.419 0.419 7.989c0.029 0.552 0.499 0.975 1.051 0.946s0.975-0.499 0.946-1.051l-0.471-8.988zM2.743 30.669l25.25-28.043-1.486-1.338-25.25 28.043 1.486 1.338z"></path>
</symbol>
<symbol id="icon-arrow-left" viewBox="0 0 16 32">
<path stroke-linejoin="miter" stroke-linecap="butt" stroke-miterlimit="4" stroke-width="2.9091" d="M14.545 1.455l-11.636 14.545 11.636 14.545"></path>
</symbol>
<symbol id="icon-arrow-right" viewBox="0 0 16 32">
<path stroke-linejoin="miter" stroke-linecap="butt" stroke-miterlimit="4" stroke-width="2.9091" d="M1.455 1.455l11.636 14.545-11.636 14.545"></path>
</symbol>
<symbol id="icon-black-week-rect" viewBox="0 0 44 32">
<path stroke-linejoin="round" stroke-linecap="butt" stroke-miterlimit="4" stroke-width="0.4267" d="M0.924 31.061v-18.095l48.071-11.983v26.976l-48.071 3.101z"></path>
<path stroke-linejoin="round" stroke-linecap="butt" stroke-miterlimit="4" stroke-width="0.9956" d="M1.067 30.9v-17.741l47.787-11.952v26.6l-47.787 3.093z"></path>
</symbol>
<symbol id="icon-facebook" viewBox="0 0 32 32">
<path d="M26.67 4h-21.34c-0.352 0.003-0.689 0.144-0.938 0.392s-0.39 0.586-0.392 0.938v21.34c0.003 0.352 0.144 0.689 0.392 0.937s0.586 0.39 0.938 0.392h11.49v-9.28h-3.12v-3.63h3.12v-2.67c0-3.1 1.89-4.79 4.67-4.79 0.93 0 1.86 0 2.79 0.14v3.23h-1.91c-1.51 0-1.8 0.72-1.8 1.77v2.31h3.6l-0.47 3.63h-3.13v9.29h6.1c0.352-0.003 0.689-0.144 0.937-0.392s0.39-0.586 0.392-0.937v-21.34c-0.003-0.352-0.144-0.689-0.392-0.938s-0.586-0.39-0.937-0.392z"></path>
</symbol>
<symbol id="icon-find" viewBox="0 0 30 32">
<path d="M28.851 30.905c0.784 0.78 1.995-0.424 1.211-1.187l-6.394-6.375c2.243-2.468 3.483-5.677 3.479-9.004 0-7.444-6.087-13.497-13.573-13.497s-13.573 6.053-13.573 13.497c0 7.444 6.087 13.497 13.573 13.497 3.376 0 6.497-1.238 8.884-3.289l6.394 6.359zM1.703 14.339c0-6.511 5.337-11.801 11.868-11.801 6.548 0 11.868 5.29 11.868 11.801s-5.32 11.801-11.868 11.801c-6.531 0-11.868-5.29-11.868-11.801z"></path>
</symbol>
<symbol id="icon-handbag" viewBox="0 0 29 32">
<path d="M27.2 31.2h-25.6c-0.16 0-0.48-0.16-0.64-0.32s-0.16-0.32-0.16-0.64l1.6-19.2c0-0.48 0.32-0.8 0.8-0.8h4v-2.24c0-1.92 0.8-3.68 2.080-5.12 1.44-1.28 3.2-2.080 5.12-2.080s3.68 0.8 5.12 2.080c1.28 1.28 2.080 3.2 2.080 5.12v2.4h4c0.48 0 0.8 0.32 0.8 0.8l1.6 19.2c0 0.16 0 0.48-0.16 0.64-0.16 0-0.48 0.16-0.64 0.16zM2.4 29.6h23.84l-1.44-17.6h-3.2v2.4c0 0.48-0.32 0.8-0.8 0.8s-0.8-0.32-0.8-0.8v-2.4h-11.2v2.4c0 0.48-0.32 0.8-0.8 0.8s-0.8-0.32-0.8-0.8v-2.4h-3.2l-1.6 17.6zM8.8 10.4h11.2v-2.4c0-1.44-0.64-2.88-1.6-4-2.080-2.080-5.76-2.080-7.84 0-1.12 1.12-1.6 2.4-1.6 4v2.4z"></path>
</symbol>
<symbol id="icon-heart" viewBox="0 0 37 32">
<path d="M18.844 31.289c-0.178 0-0.178 0-0.356 0-6.4-2.133-17.778-11.022-17.778-20.978 0-5.689 4.622-10.311 10.311-10.311v0c0 0 0 0 0 0 1.6 0 3.378 0.356 4.8 1.244 1.067 0.533 2.133 1.244 3.022 2.311 1.956-2.133 4.8-3.556 7.822-3.556 5.689 0 10.311 4.622 10.311 10.311 0 9.956-11.378 18.844-17.778 20.978-0.178 0-0.356 0-0.356 0zM11.022 1.778c-4.622 0-8.533 3.911-8.533 8.533 0 8.889 10.489 17.067 16.356 19.2 5.867-2.133 16.356-10.311 16.356-19.2 0-4.8-3.911-8.533-8.533-8.533-2.844 0-5.333 1.422-7.111 3.733-0.178 0.178-0.356 0.356-0.711 0.356 0 0 0 0 0 0-0.356 0-0.533-0.178-0.711-0.356-0.711-1.067-1.778-2.133-3.022-2.667-1.244-0.711-2.667-1.067-4.089-1.067 0 0 0 0 0 0z"></path>
</symbol>
<symbol id="icon-instagram" viewBox="0 0 32 32">
<path d="M16 1.397c-3.966 0-4.463 0.018-6.021 0.088-1.554 0.072-2.615 0.318-3.544 0.679-0.975 0.366-1.858 0.941-2.588 1.684-0.743 0.73-1.317 1.613-1.684 2.588-0.361 0.929-0.607 1.99-0.679 3.544-0.072 1.558-0.088 2.055-0.088 6.021s0.016 4.463 0.088 6.021c0.072 1.554 0.318 2.615 0.679 3.544 0.366 0.975 0.941 1.858 1.684 2.588 0.73 0.743 1.613 1.317 2.588 1.684 0.929 0.361 1.99 0.608 3.544 0.679 1.558 0.070 2.055 0.088 6.021 0.088s4.463-0.018 6.021-0.088c1.554-0.071 2.615-0.318 3.544-0.679 0.975-0.366 1.858-0.941 2.588-1.684 0.743-0.73 1.317-1.613 1.684-2.588 0.361-0.929 0.608-1.99 0.679-3.544 0.070-1.558 0.088-2.055 0.088-6.021s-0.018-4.463-0.088-6.021c-0.071-1.554-0.318-2.615-0.679-3.544-0.366-0.975-0.941-1.858-1.684-2.588-0.73-0.743-1.613-1.317-2.588-1.684-0.929-0.361-1.99-0.607-3.544-0.679-1.558-0.070-2.055-0.088-6.021-0.088zM16 4.028c3.899 0 4.361 0.015 5.9 0.085 1.425 0.066 2.198 0.302 2.713 0.502 0.68 0.266 1.168 0.583 1.679 1.092 0.511 0.511 0.827 0.999 1.092 1.679 0.199 0.516 0.438 1.288 0.502 2.712 0.070 1.541 0.085 2.001 0.085 5.901 0 3.899-0.015 4.361-0.085 5.9-0.066 1.425-0.304 2.198-0.502 2.713-0.234 0.634-0.607 1.208-1.092 1.679-0.511 0.511-0.999 0.826-1.679 1.092-0.515 0.199-1.288 0.438-2.712 0.502-1.539 0.070-2.001 0.085-5.901 0.085-3.899 0-4.362-0.015-5.9-0.085-1.425-0.066-2.198-0.304-2.713-0.502-0.634-0.234-1.208-0.607-1.679-1.092-0.485-0.471-0.858-1.045-1.092-1.679-0.2-0.515-0.438-1.288-0.502-2.712-0.070-1.541-0.085-2.001-0.085-5.901 0-3.899 0.015-4.361 0.085-5.9 0.066-1.425 0.302-2.198 0.502-2.713 0.266-0.681 0.583-1.168 1.092-1.679 0.511-0.511 0.999-0.827 1.679-1.092 0.516-0.2 1.288-0.438 2.712-0.502 1.541-0.070 2.001-0.085 5.901-0.085zM16 20.867c-1.291 0-2.529-0.513-3.442-1.426s-1.426-2.151-1.426-3.442c0-1.291 0.513-2.529 1.426-3.442s2.151-1.426 3.442-1.426c1.291 0 2.529 0.513 3.442 1.426s1.426 2.151 1.426 3.442c0 1.291-0.513 2.529-1.426 3.442s-2.151 1.426-3.442 1.426zM16 8.501c-0.985 0-1.96 0.194-2.87 0.571s-1.736 0.929-2.433 1.626c-0.696 0.696-1.249 1.523-1.626 2.433s-0.571 1.885-0.571 2.87c0 0.985 0.194 1.96 0.571 2.87s0.929 1.736 1.626 2.433c0.696 0.696 1.523 1.249 2.433 1.625s1.885 0.571 2.87 0.571c1.989 0 3.896-0.79 5.302-2.196s2.196-3.314 2.196-5.302c0-1.989-0.79-3.896-2.196-5.302s-3.314-2.196-5.302-2.196zM25.547 8.205c0 0.23-0.045 0.458-0.133 0.671s-0.217 0.406-0.38 0.569c-0.163 0.163-0.356 0.292-0.569 0.38s-0.441 0.133-0.671 0.133c-0.23 0-0.458-0.045-0.671-0.133s-0.406-0.217-0.569-0.38c-0.163-0.163-0.292-0.356-0.38-0.569s-0.133-0.44-0.133-0.671c0-0.465 0.185-0.91 0.513-1.239s0.774-0.513 1.239-0.513 0.91 0.185 1.239 0.513c0.329 0.329 0.513 0.774 0.513 1.239z"></path>
</symbol>
<symbol id="icon-twitter" viewBox="0 0 32 32">
<path d="M29.549 7.541c-1.018 0.45-2.097 0.746-3.203 0.877 1.165-0.697 2.037-1.793 2.453-3.085-1.093 0.651-2.292 1.107-3.541 1.353-0.839-0.898-1.952-1.493-3.164-1.694s-2.457 0.005-3.541 0.585c-1.084 0.58-1.945 1.502-2.451 2.622s-0.627 2.376-0.345 3.572c-2.217-0.111-4.386-0.687-6.366-1.691s-3.727-2.413-5.127-4.136c-0.496 0.851-0.756 1.819-0.755 2.804 0 1.933 0.984 3.641 2.48 4.641-0.885-0.028-1.751-0.267-2.525-0.697v0.069c0 1.288 0.446 2.535 1.261 3.532s1.95 1.681 3.212 1.936c-0.822 0.223-1.684 0.256-2.52 0.096 0.356 1.108 1.049 2.078 1.983 2.772s2.062 1.079 3.226 1.101c-1.157 0.909-2.481 1.58-3.897 1.976s-2.897 0.509-4.357 0.333c2.549 1.639 5.516 2.509 8.547 2.507 10.257 0 15.867-8.497 15.867-15.867 0-0.24-0.007-0.483-0.017-0.72 1.092-0.789 2.034-1.767 2.783-2.887l-0.001-0.001z"></path>
</symbol>
<symbol id="ellipse2" viewBox="0 0 32 32">
<path fill="#a59b84" style="fill: var(--color1, #a59b84)" opacity="0.4" d="M28.596 16c0 6.956-5.639 12.596-12.596 12.596s-12.596-5.639-12.596-12.596c0-6.956 5.639-12.596 12.596-12.596s12.596 5.639 12.596 12.596z"></path>
</symbol>
</defs>
</svg>
